<svg xmlns="http://www.w3.org/2000/svg" width="112" height="141" viewBox="0 0 112 141"><g transform="translate(-1716 -676)"><g transform="translate(-184 193)"><g transform="translate(215 -14)"><g transform="translate(1699.65 505.117)"><path d="M8.48-41.143C8.48-26.511,25-26.511,25-41.143,25-53.11,8.48-53.11,8.48-41.143Zm2.665,0c0-8.449,11.194-8.449,11.194,0C22.339-30.3,11.145-30.349,11.145-41.143ZM2.083-18.062H4.749c0-4.717,0-4.691,3.012-6.13l3.918-1.892c1.732-.826,3.731-1.839,3.731-4.238v-2.132H12.744c0,1.6.267,3.038-1.759,3.945L6.961-26.7C2.4-24.646,2.083-23.873,2.083-18.062Zm29.318,0c0-5.81-.32-6.583-4.877-8.635L22.5-28.51c-2.026-.906-1.759-2.345-1.759-3.945H18.075v2.132c0,2.4,2,3.411,3.731,4.238l3.918,1.892c3.012,1.439,3.012,1.439,3.012,6.13Zm0,0" transform="translate(25 75)" fill="#fff"/></g><text transform="translate(1741 579)" fill="#fff" font-size="16" font-family="OpenSans-Semibold, Open Sans" font-weight="600"><tspan x="-38.977" y="0">Image not</tspan><tspan x="-34.488" y="22">available</tspan></text></g></g><path d="M0,0H112V141H0Z" transform="translate(1716 676)" fill="rgba(66,66,66,0)"/></g></svg>